<?xml version="1.0" encoding="UTF-8" standalone="no"?>
<!-- Uploaded to: SVG Repo, www.svgrepo.com, Generator: SVG Repo Mixer Tools -->

<svg
   fill="#000000"
   version="1.1"
   id="Capa_1"
   width="800px"
   height="800px"
   viewBox="0 0 292.299 292.299"
   xml:space="preserve"
   sodipodi:docname="crescent-moon-svgrepo-com.svg"
   inkscape:version="1.4.4 (dcaf3e7d9e, 2026-05-05)"
   xmlns:inkscape="http://www.inkscape.org/namespaces/inkscape"
   xmlns:sodipodi="http://sodipodi.sourceforge.net/DTD/sodipodi-0.dtd"
   xmlns="http://www.w3.org/2000/svg"
   xmlns:svg="http://www.w3.org/2000/svg"><defs
   id="defs2" /><sodipodi:namedview
   id="namedview2"
   pagecolor="#ffffff"
   bordercolor="#000000"
   borderopacity="0.25"
   inkscape:showpageshadow="2"
   inkscape:pageopacity="0.0"
   inkscape:pagecheckerboard="0"
   inkscape:deskcolor="#d1d1d1"
   inkscape:zoom="0.5975"
   inkscape:cx="400"
   inkscape:cy="400"
   inkscape:window-width="964"
   inkscape:window-height="688"
   inkscape:window-x="0"
   inkscape:window-y="0"
   inkscape:window-maximized="1"
   inkscape:current-layer="Capa_1" />
<g
   id="g2"
   style="fill:#999999">
	<g
   id="g1"
   style="fill:#999999">
		<path
   d="M153.699,292.138C68.95,292.138,0,223.185,0,138.439C0,79.742,32.675,27.002,85.28,0.807    c2.369-1.174,5.215-0.718,7.077,1.144c1.864,1.864,2.345,4.711,1.183,7.074C83.941,28.527,79.077,49.496,79.077,71.33    c0,77.972,63.432,141.407,141.395,141.407c22.08,0,43.247-4.978,62.942-14.777c2.366-1.177,5.213-0.721,7.074,1.141    c1.873,1.867,2.342,4.714,1.177,7.073C265.61,259.195,212.738,292.138,153.699,292.138z"
   id="path1"
   style="fill:#999999" />
	</g>
</g>
</svg>
